<svg xmlns="http://www.w3.org/2000/svg" width="68" height="37" viewBox="0 0 68 37" shape-rendering="crispEdges" role="img" aria-label="Rainbow Star avatar"><rect x="5" y="0" width="1" height="1" fill="#000000"></rect><rect x="6" y="0" width="4" height="1" fill="#e63746"></rect><rect x="10" y="0" width="5" height="1" fill="#f58c1e"></rect><rect x="15" y="0" width="2" height="1" fill="#000000"></rect><rect x="17" y="0" width="2" height="2" fill="#e63746"></rect><rect x="19" y="0" width="3" height="1" fill="#0a091c"></rect><rect x="22" y="0" width="4" height="1" fill="#7846d7"></rect><rect x="26" y="0" width="16" height="1" fill="#0a091c"></rect><rect x="42" y="0" width="4" height="1" fill="#7846d7"></rect><rect x="46" y="0" width="2" height="1" fill="#0a091c"></rect><rect x="48" y="0" width="3" height="1" fill="#e63746"></rect><rect x="51" y="0" width="2" height="1" fill="#0a091c"></rect><rect x="53" y="0" width="6" height="1" fill="#f58c1e"></rect><rect x="59" y="0" width="4" height="1" fill="#e63746"></rect><rect x="63" y="0" width="1" height="1" fill="#000000"></rect><rect x="4" y="1" width="1" height="1" fill="#000000"></rect><rect x="5" y="1" width="3" height="1" fill="#e63746"></rect><rect x="8" y="1" width="4" height="1" fill="#f58c1e"></rect><rect x="12" y="1" width="2" height="1" fill="#fad728"></rect><rect x="14" y="1" width="1" height="2" fill="#0a091c"></rect><rect x="15" y="1" width="1" height="9" fill="#fad728"></rect><rect x="16" y="1" width="1" height="1" fill="#000000"></rect><rect x="19" y="1" width="2" height="1" fill="#0a091c"></rect><rect x="21" y="1" width="3" height="1" fill="#7846d7"></rect><rect x="24" y="1" width="1" height="1" fill="#2d1482"></rect><rect x="25" y="1" width="1" height="1" fill="#0a091c"></rect><rect x="26" y="1" width="15" height="2" fill="#9637aa"></rect><rect x="41" y="1" width="3" height="1" fill="#0a091c"></rect><rect x="44" y="1" width="2" height="1" fill="#7846d7"></rect><rect x="46" y="1" width="1" height="1" fill="#2d1482"></rect><rect x="47" y="1" width="2" height="1" fill="#000000"></rect><rect x="49" y="1" width="1" height="1" fill="#e63746"></rect><rect x="50" y="1" width="1" height="1" fill="#000000"></rect><rect x="51" y="1" width="1" height="1" fill="#ebaa78"></rect><rect x="52" y="1" width="1" height="1" fill="#0a091c"></rect><rect x="53" y="1" width="4" height="1" fill="#fad728"></rect><rect x="57" y="1" width="3" height="2" fill="#f58c1e"></rect><rect x="60" y="1" width="4" height="1" fill="#e63746"></rect><rect x="64" y="1" width="1" height="2" fill="#0a091c"></rect><rect x="3" y="2" width="1" height="3" fill="#0a091c"></rect><rect x="4" y="2" width="3" height="1" fill="#e63746"></rect><rect x="7" y="2" width="3" height="1" fill="#f58c1e"></rect><rect x="10" y="2" width="3" height="2" fill="#fad728"></rect><rect x="13" y="2" width="1" height="1" fill="#0a091c"></rect><rect x="16" y="2" width="1" height="8" fill="#fad728"></rect><rect x="17" y="2" width="3" height="1" fill="#0a091c"></rect><rect x="20" y="2" width="2" height="1" fill="#2d1482"></rect><rect x="22" y="2" width="1" height="1" fill="#7846d7"></rect><rect x="23" y="2" width="2" height="1" fill="#0a091c"></rect><rect x="25" y="2" width="1" height="2" fill="#9637aa"></rect><rect x="41" y="2" width="2" height="2" fill="#9637aa"></rect><rect x="43" y="2" width="1" height="1" fill="#000000"></rect><rect x="44" y="2" width="1" height="1" fill="#0a091c"></rect><rect x="45" y="2" width="2" height="1" fill="#7846d7"></rect><rect x="47" y="2" width="1" height="2" fill="#2d1482"></rect><rect x="48" y="2" width="3" height="1" fill="#0a091c"></rect><rect x="51" y="2" width="2" height="8" fill="#fad728"></rect><rect x="53" y="2" width="1" height="1" fill="#000000"></rect><rect x="54" y="2" width="1" height="2" fill="#0a091c"></rect><rect x="55" y="2" width="2" height="2" fill="#fad728"></rect><rect x="60" y="2" width="1" height="3" fill="#f58c1e"></rect><rect x="61" y="2" width="3" height="1" fill="#e63746"></rect><rect x="4" y="3" width="2" height="3" fill="#e63746"></rect><rect x="6" y="3" width="3" height="1" fill="#f58c1e"></rect><rect x="9" y="3" width="1" height="1" fill="#fad728"></rect><rect x="13" y="3" width="1" height="1" fill="#000000"></rect><rect x="14" y="3" width="1" height="7" fill="#fad728"></rect><rect x="17" y="3" width="2" height="1" fill="#0a091c"></rect><rect x="19" y="3" width="2" height="1" fill="#2d1482"></rect><rect x="21" y="3" width="1" height="2" fill="#0a091c"></rect><rect x="22" y="3" width="1" height="1" fill="#000000"></rect><rect x="23" y="3" width="2" height="1" fill="#9637aa"></rect><rect x="26" y="3" width="1" height="1" fill="#9637aa"></rect><rect x="27" y="3" width="1" height="1" fill="#000000"></rect><rect x="28" y="3" width="11" height="1" fill="#0a091c"></rect><rect x="39" y="3" width="1" height="1" fill="#000000"></rect><rect x="40" y="3" width="1" height="1" fill="#9637aa"></rect><rect x="43" y="3" width="2" height="2" fill="#9637aa"></rect><rect x="45" y="3" width="1" height="1" fill="#000000"></rect><rect x="46" y="3" width="1" height="2" fill="#0a091c"></rect><rect x="48" y="3" width="1" height="1" fill="#2d1482"></rect><rect x="49" y="3" width="1" height="1" fill="#0a091c"></rect><rect x="50" y="3" width="1" height="1" fill="#000000"></rect><rect x="53" y="3" width="1" height="1" fill="#0a091c"></rect><rect x="57" y="3" width="2" height="1" fill="#fad728"></rect><rect x="59" y="3" width="1" height="1" fill="#f58c1e"></rect><rect x="61" y="3" width="1" height="4" fill="#f58c1e"></rect><rect x="62" y="3" width="3" height="1" fill="#e63746"></rect><rect x="65" y="3" width="1" height="3" fill="#0a091c"></rect><rect x="6" y="4" width="2" height="1" fill="#f58c1e"></rect><rect x="8" y="4" width="1" height="9" fill="#fad728"></rect><rect x="9" y="4" width="1" height="1" fill="#0a091c"></rect><rect x="10" y="4" width="3" height="1" fill="#000000"></rect><rect x="13" y="4" width="1" height="1" fill="#0a091c"></rect><rect x="17" y="4" width="1" height="8" fill="#fad728"></rect><rect x="18" y="4" width="3" height="1" fill="#0a091c"></rect><rect x="22" y="4" width="2" height="1" fill="#9637aa"></rect><rect x="24" y="4" width="1" height="1" fill="#0a091c"></rect><rect x="25" y="4" width="1" height="1" fill="#000000"></rect><rect x="26" y="4" width="1" height="1" fill="#0a091c"></rect><rect x="27" y="4" width="12" height="2" fill="#fad728"></rect><rect x="39" y="4" width="1" height="1" fill="#ebaa78"></rect><rect x="40" y="4" width="3" height="1" fill="#0a091c"></rect><rect x="45" y="4" width="1" height="1" fill="#e63746"></rect><rect x="47" y="4" width="2" height="1" fill="#0a091c"></rect><rect x="49" y="4" width="1" height="1" fill="#000000"></rect><rect x="50" y="4" width="1" height="6" fill="#fad728"></rect><rect x="53" y="4" width="1" height="6" fill="#fad728"></rect><rect x="54" y="4" width="2" height="1" fill="#000000"></rect><rect x="56" y="4" width="3" height="1" fill="#0a091c"></rect><rect x="59" y="4" width="1" height="8" fill="#fad728"></rect><rect x="62" y="4" width="1" height="6" fill="#f58c1e"></rect><rect x="63" y="4" width="2" height="2" fill="#e63746"></rect><rect x="2" y="5" width="1" height="1" fill="#000000"></rect><rect x="3" y="5" width="1" height="7" fill="#e63746"></rect><rect x="6" y="5" width="1" height="5" fill="#f58c1e"></rect><rect x="7" y="5" width="1" height="12" fill="#fad728"></rect><rect x="9" y="5" width="1" height="2" fill="#000000"></rect><rect x="10" y="5" width="4" height="1" fill="#fad728"></rect><rect x="18" y="5" width="4" height="1" fill="#fad728"></rect><rect x="22" y="5" width="1" height="1" fill="#000000"></rect><rect x="23" y="5" width="1" height="1" fill="#0a091c"></rect><rect x="24" y="5" width="1" height="1" fill="#ebaa78"></rect><rect x="25" y="5" width="2" height="2" fill="#fad728"></rect><rect x="39" y="5" width="4" height="1" fill="#fad728"></rect><rect x="43" y="5" width="2" height="1" fill="#000000"></rect><rect x="45" y="5" width="1" height="2" fill="#0a091c"></rect><rect x="46" y="5" width="4" height="1" fill="#fad728"></rect><rect x="54" y="5" width="4" height="1" fill="#fad728"></rect><rect x="58" y="5" width="1" height="1" fill="#000000"></rect><rect x="60" y="5" width="1" height="9" fill="#fad728"></rect><rect x="2" y="6" width="1" height="1" fill="#0a091c"></rect><rect x="4" y="6" width="1" height="3" fill="#e63746"></rect><rect x="5" y="6" width="1" height="6" fill="#f58c1e"></rect><rect x="10" y="6" width="1" height="1" fill="#0a091c"></rect><rect x="11" y="6" width="3" height="1" fill="#fad728"></rect><rect x="18" y="6" width="3" height="1" fill="#fad728"></rect><rect x="21" y="6" width="1" height="1" fill="#0a091c"></rect><rect x="22" y="6" width="3" height="1" fill="#fad728"></rect><rect x="27" y="6" width="13" height="2" fill="#14aa4b"></rect><rect x="40" y="6" width="4" height="1" fill="#fad728"></rect><rect x="44" y="6" width="1" height="1" fill="#000000"></rect><rect x="46" y="6" width="1" height="1" fill="#e63746"></rect><rect x="47" y="6" width="1" height="1" fill="#f58c1e"></rect><rect x="48" y="6" width="2" height="2" fill="#fad728"></rect><rect x="54" y="6" width="3" height="1" fill="#fad728"></rect><rect x="57" y="6" width="2" height="1" fill="#0a091c"></rect><rect x="63" y="6" width="1" height="6" fill="#f58c1e"></rect><rect x="64" y="6" width="2" height="3" fill="#e63746"></rect><rect x="66" y="6" width="1" height="4" fill="#000000"></rect><rect x="2" y="7" width="1" height="1" fill="#000000"></rect><rect x="9" y="7" width="1" height="3" fill="#fad728"></rect><rect x="10" y="7" width="1" height="1" fill="#000000"></rect><rect x="11" y="7" width="1" height="4" fill="#0a091c"></rect><rect x="12" y="7" width="2" height="1" fill="#fad728"></rect><rect x="18" y="7" width="2" height="1" fill="#fad728"></rect><rect x="20" y="7" width="1" height="2" fill="#0a091c"></rect><rect x="21" y="7" width="1" height="1" fill="#000000"></rect><rect x="22" y="7" width="2" height="1" fill="#fad728"></rect><rect x="24" y="7" width="3" height="2" fill="#14aa4b"></rect><rect x="40" y="7" width="2" height="2" fill="#14aa4b"></rect><rect x="42" y="7" width="4" height="1" fill="#fad728"></rect><rect x="46" y="7" width="1" height="1" fill="#0a091c"></rect><rect x="47" y="7" width="1" height="1" fill="#e63746"></rect><rect x="54" y="7" width="2" height="1" fill="#fad728"></rect><rect x="56" y="7" width="2" height="1" fill="#0a091c"></rect><rect x="58" y="7" width="1" height="3" fill="#fad728"></rect><rect x="61" y="7" width="1" height="12" fill="#fad728"></rect><rect x="1" y="8" width="1" height="3" fill="#0a091c"></rect><rect x="2" y="8" width="1" height="11" fill="#e63746"></rect><rect x="10" y="8" width="1" height="2" fill="#f58c1e"></rect><rect x="12" y="8" width="1" height="1" fill="#f58c1e"></rect><rect x="13" y="8" width="1" height="4" fill="#fad728"></rect><rect x="18" y="8" width="1" height="1" fill="#fad728"></rect><rect x="19" y="8" width="1" height="5" fill="#0a091c"></rect><rect x="21" y="8" width="2" height="1" fill="#fad728"></rect><rect x="23" y="8" width="1" height="3" fill="#14aa4b"></rect><rect x="27" y="8" width="12" height="2" fill="#0c8ccd"></rect><rect x="39" y="8" width="1" height="1" fill="#14aa4b"></rect><rect x="42" y="8" width="2" height="2" fill="#14aa4b"></rect><rect x="44" y="8" width="3" height="1" fill="#fad728"></rect><rect x="47" y="8" width="1" height="3" fill="#0a091c"></rect><rect x="48" y="8" width="1" height="1" fill="#e63746"></rect><rect x="49" y="8" width="1" height="2" fill="#fad728"></rect><rect x="54" y="8" width="1" height="3" fill="#fad728"></rect><rect x="55" y="8" width="1" height="2" fill="#e63746"></rect><rect x="56" y="8" width="1" height="6" fill="#0a091c"></rect><rect x="57" y="8" width="1" height="1" fill="#f58c1e"></rect><rect x="4" y="9" width="1" height="20" fill="#f58c1e"></rect><rect x="12" y="9" width="1" height="1" fill="#0a091c"></rect><rect x="18" y="9" width="1" height="1" fill="#f58c1e"></rect><rect x="20" y="9" width="1" height="1" fill="#fad728"></rect><rect x="21" y="9" width="2" height="2" fill="#14aa4b"></rect><rect x="24" y="9" width="2" height="1" fill="#14aa4b"></rect><rect x="26" y="9" width="1" height="5" fill="#0c8ccd"></rect><rect x="39" y="9" width="2" height="3" fill="#0c8ccd"></rect><rect x="41" y="9" width="1" height="1" fill="#14aa4b"></rect><rect x="44" y="9" width="1" height="4" fill="#14aa4b"></rect><rect x="45" y="9" width="2" height="1" fill="#fad728"></rect><rect x="48" y="9" width="1" height="1" fill="#0a091c"></rect><rect x="57" y="9" width="1" height="5" fill="#14aa4b"></rect><rect x="64" y="9" width="1" height="18" fill="#f58c1e"></rect><rect x="65" y="9" width="1" height="4" fill="#e63746"></rect><rect x="6" y="10" width="1" height="11" fill="#fad728"></rect><rect x="9" y="10" width="2" height="3" fill="#14aa4b"></rect><rect x="12" y="10" width="1" height="3" fill="#fad728"></rect><rect x="14" y="10" width="3" height="1" fill="#f58c1e"></rect><rect x="18" y="10" width="1" height="2" fill="#fad728"></rect><rect x="20" y="10" width="1" height="3" fill="#14aa4b"></rect><rect x="24" y="10" width="2" height="4" fill="#0c8ccd"></rect><rect x="27" y="10" width="11" height="1" fill="#0c8ccd"></rect><rect x="38" y="10" width="1" height="2" fill="#145596"></rect><rect x="41" y="10" width="2" height="3" fill="#0c8ccd"></rect><rect x="43" y="10" width="1" height="1" fill="#14aa4b"></rect><rect x="45" y="10" width="2" height="3" fill="#14aa4b"></rect><rect x="48" y="10" width="1" height="3" fill="#fad728"></rect><rect x="49" y="10" width="5" height="1" fill="#f58c1e"></rect><rect x="55" y="10" width="1" height="3" fill="#fad728"></rect><rect x="58" y="10" width="1" height="6" fill="#14aa4b"></rect><rect x="62" y="10" width="1" height="19" fill="#fad728"></rect><rect x="66" y="10" width="1" height="9" fill="#e63746"></rect><rect x="67" y="10" width="1" height="1" fill="#000000"></rect><rect x="1" y="11" width="1" height="7" fill="#000000"></rect><rect x="11" y="11" width="1" height="1" fill="#000000"></rect><rect x="14" y="11" width="1" height="1" fill="#f58c1e"></rect><rect x="15" y="11" width="2" height="2" fill="#0a091c"></rect><rect x="21" y="11" width="1" height="2" fill="#14aa4b"></rect><rect x="22" y="11" width="2" height="5" fill="#0c8ccd"></rect><rect x="27" y="11" width="9" height="1" fill="#0c8ccd"></rect><rect x="36" y="11" width="2" height="3" fill="#7846d7"></rect><rect x="43" y="11" width="1" height="5" fill="#0c8ccd"></rect><rect x="47" y="11" width="1" height="2" fill="#000000"></rect><rect x="49" y="11" width="2" height="1" fill="#fad728"></rect><rect x="51" y="11" width="2" height="1" fill="#0a091c"></rect><rect x="53" y="11" width="2" height="1" fill="#f58c1e"></rect><rect x="67" y="11" width="1" height="3" fill="#0a091c"></rect><rect x="3" y="12" width="1" height="13" fill="#f58c1e"></rect><rect x="5" y="12" width="1" height="19" fill="#fad728"></rect><rect x="11" y="12" width="1" height="2" fill="#0a091c"></rect><rect x="13" y="12" width="1" height="1" fill="#e63746"></rect><rect x="14" y="12" width="1" height="3" fill="#0a091c"></rect><rect x="17" y="12" width="1" height="2" fill="#0a091c"></rect><rect x="18" y="12" width="1" height="1" fill="#fad8aa"></rect><rect x="27" y="12" width="1" height="2" fill="#0c8ccd"></rect><rect x="28" y="12" width="4" height="2" fill="#7846d7"></rect><rect x="32" y="12" width="4" height="3" fill="#0c8ccd"></rect><rect x="38" y="12" width="1" height="1" fill="#2d1482"></rect><rect x="39" y="12" width="2" height="2" fill="#7846d7"></rect><rect x="49" y="12" width="1" height="1" fill="#f58c1e"></rect><rect x="50" y="12" width="1" height="1" fill="#000000"></rect><rect x="51" y="12" width="1" height="1" fill="#e63746"></rect><rect x="52" y="12" width="1" height="1" fill="#0a091c"></rect><rect x="53" y="12" width="1" height="1" fill="#000000"></rect><rect x="54" y="12" width="1" height="1" fill="#f58c1e"></rect><rect x="59" y="12" width="1" height="25" fill="#14aa4b"></rect><rect x="63" y="12" width="1" height="15" fill="#fad728"></rect><rect x="8" y="13" width="2" height="3" fill="#14aa4b"></rect><rect x="10" y="13" width="1" height="24" fill="#0c8ccd"></rect><rect x="12" y="13" width="2" height="1" fill="#0a091c"></rect><rect x="15" y="13" width="1" height="2" fill="#f58c1e"></rect><rect x="16" y="13" width="1" height="1" fill="#0a091c"></rect><rect x="18" y="13" width="2" height="1" fill="#000000"></rect><rect x="20" y="13" width="2" height="5" fill="#0c8ccd"></rect><rect x="38" y="13" width="1" height="2" fill="#0a091c"></rect><rect x="41" y="13" width="1" height="3" fill="#7846d7"></rect><rect x="42" y="13" width="1" height="2" fill="#0c8ccd"></rect><rect x="44" y="13" width="3" height="4" fill="#0c8ccd"></rect><rect x="47" y="13" width="1" height="1" fill="#0a091c"></rect><rect x="48" y="13" width="1" height="1" fill="#000000"></rect><rect x="49" y="13" width="1" height="1" fill="#0a091c"></rect><rect x="50" y="13" width="3" height="1" fill="#f58c1e"></rect><rect x="53" y="13" width="3" height="1" fill="#0a091c"></rect><rect x="65" y="13" width="1" height="11" fill="#f58c1e"></rect><rect x="11" y="14" width="2" height="3" fill="#0c8ccd"></rect><rect x="13" y="14" width="1" height="2" fill="#0a091c"></rect><rect x="16" y="14" width="1" height="18" fill="#14aa4b"></rect><rect x="17" y="14" width="3" height="7" fill="#0c8ccd"></rect><rect x="24" y="14" width="1" height="1" fill="#0c8ccd"></rect><rect x="25" y="14" width="5" height="1" fill="#7846d7"></rect><rect x="30" y="14" width="1" height="1" fill="#2d1482"></rect><rect x="31" y="14" width="1" height="1" fill="#145596"></rect><rect x="36" y="14" width="1" height="3" fill="#7846d7"></rect><rect x="37" y="14" width="1" height="1" fill="#2d1482"></rect><rect x="39" y="14" width="1" height="2" fill="#0a091c"></rect><rect x="40" y="14" width="1" height="2" fill="#7846d7"></rect><rect x="47" y="14" width="5" height="2" fill="#14aa4b"></rect><rect x="52" y="14" width="1" height="1" fill="#f58c1e"></rect><rect x="53" y="14" width="2" height="2" fill="#0a091c"></rect><rect x="55" y="14" width="1" height="3" fill="#145596"></rect><rect x="56" y="14" width="2" height="3" fill="#0c8ccd"></rect><rect x="60" y="14" width="1" height="22" fill="#14aa4b"></rect><rect x="67" y="14" width="1" height="2" fill="#000000"></rect><rect x="14" y="15" width="1" height="14" fill="#fad728"></rect><rect x="15" y="15" width="1" height="16" fill="#14aa4b"></rect><rect x="24" y="15" width="5" height="1" fill="#7846d7"></rect><rect x="29" y="15" width="2" height="1" fill="#0a091c"></rect><rect x="31" y="15" width="4" height="1" fill="#0c8ccd"></rect><rect x="35" y="15" width="1" height="3" fill="#7846d7"></rect><rect x="37" y="15" width="1" height="2" fill="#0a091c"></rect><rect x="38" y="15" width="1" height="1" fill="#9637aa"></rect><rect x="42" y="15" width="1" height="2" fill="#7846d7"></rect><rect x="52" y="15" width="1" height="1" fill="#ebaa78"></rect><rect x="8" y="16" width="1" height="21" fill="#14aa4b"></rect><rect x="9" y="16" width="1" height="10" fill="#0c8ccd"></rect><rect x="13" y="16" width="1" height="1" fill="#000000"></rect><rect x="22" y="16" width="1" height="1" fill="#0c8ccd"></rect><rect x="23" y="16" width="5" height="1" fill="#7846d7"></rect><rect x="28" y="16" width="2" height="1" fill="#0a091c"></rect><rect x="30" y="16" width="1" height="4" fill="#7846d7"></rect><rect x="31" y="16" width="3" height="1" fill="#0c8ccd"></rect><rect x="34" y="16" width="1" height="3" fill="#7846d7"></rect><rect x="38" y="16" width="2" height="2" fill="#ebaa78"></rect><rect x="40" y="16" width="1" height="1" fill="#0a091c"></rect><rect x="41" y="16" width="1" height="1" fill="#9637aa"></rect><rect x="43" y="16" width="1" height="3" fill="#2d1482"></rect><rect x="47" y="16" width="1" height="4" fill="#0c8ccd"></rect><rect x="48" y="16" width="1" height="1" fill="#145596"></rect><rect x="49" y="16" width="3" height="2" fill="#14aa4b"></rect><rect x="52" y="16" width="1" height="3" fill="#f58c1e"></rect><rect x="53" y="16" width="1" height="1" fill="#ebaa78"></rect><rect x="54" y="16" width="1" height="3" fill="#0a091c"></rect><rect x="58" y="16" width="1" height="10" fill="#0c8ccd"></rect><rect x="67" y="16" width="1" height="3" fill="#0a091c"></rect><rect x="7" y="17" width="1" height="19" fill="#14aa4b"></rect><rect x="11" y="17" width="1" height="9" fill="#145596"></rect><rect x="12" y="17" width="2" height="1" fill="#0a091c"></rect><rect x="22" y="17" width="5" height="1" fill="#7846d7"></rect><rect x="27" y="17" width="1" height="1" fill="#000000"></rect><rect x="28" y="17" width="1" height="1" fill="#f0968c"></rect><rect x="29" y="17" width="1" height="11" fill="#0a091c"></rect><rect x="31" y="17" width="1" height="1" fill="#0c8ccd"></rect><rect x="32" y="17" width="2" height="2" fill="#7846d7"></rect><rect x="36" y="17" width="1" height="1" fill="#0a091c"></rect><rect x="37" y="17" width="1" height="1" fill="#f58c1e"></rect><rect x="40" y="17" width="1" height="2" fill="#ebaa78"></rect><rect x="41" y="17" width="1" height="1" fill="#000000"></rect><rect x="42" y="17" width="1" height="1" fill="#2d1482"></rect><rect x="44" y="17" width="1" height="3" fill="#2d1482"></rect><rect x="45" y="17" width="2" height="1" fill="#0c8ccd"></rect><rect x="48" y="17" width="1" height="5" fill="#0c8ccd"></rect><rect x="53" y="17" width="1" height="5" fill="#f58c1e"></rect><rect x="55" y="17" width="1" height="1" fill="#0a091c"></rect><rect x="56" y="17" width="1" height="1" fill="#145596"></rect><rect x="57" y="17" width="1" height="20" fill="#0c8ccd"></rect><rect x="1" y="18" width="1" height="1" fill="#0a091c"></rect><rect x="12" y="18" width="1" height="8" fill="#0a091c"></rect><rect x="13" y="18" width="1" height="1" fill="#000000"></rect><rect x="20" y="18" width="1" height="1" fill="#0c8ccd"></rect><rect x="21" y="18" width="4" height="1" fill="#7846d7"></rect><rect x="25" y="18" width="2" height="1" fill="#0a091c"></rect><rect x="27" y="18" width="1" height="2" fill="#ebaa78"></rect><rect x="28" y="18" width="1" height="3" fill="#fad8aa"></rect><rect x="31" y="18" width="1" height="2" fill="#7846d7"></rect><rect x="35" y="18" width="1" height="1" fill="#0a091c"></rect><rect x="36" y="18" width="1" height="1" fill="#f58c1e"></rect><rect x="37" y="18" width="1" height="1" fill="#ebaa78"></rect><rect x="38" y="18" width="1" height="3" fill="#fad8aa"></rect><rect x="39" y="18" width="1" height="1" fill="#ebaa78"></rect><rect x="41" y="18" width="1" height="1" fill="#f58c1e"></rect><rect x="42" y="18" width="1" height="1" fill="#0a091c"></rect><rect x="45" y="18" width="1" height="3" fill="#2d1482"></rect><rect x="46" y="18" width="1" height="1" fill="#0c8ccd"></rect><rect x="49" y="18" width="1" height="4" fill="#0c8ccd"></rect><rect x="50" y="18" width="2" height="12" fill="#14aa4b"></rect><rect x="55" y="18" width="1" height="1" fill="#000000"></rect><rect x="56" y="18" width="1" height="8" fill="#2d1482"></rect><rect x="2" y="19" width="1" height="7" fill="#000000"></rect><rect x="13" y="19" width="1" height="1" fill="#0a091c"></rect><rect x="20" y="19" width="4" height="1" fill="#7846d7"></rect><rect x="24" y="19" width="1" height="1" fill="#0a091c"></rect><rect x="25" y="19" width="1" height="1" fill="#f58c1e"></rect><rect x="26" y="19" width="1" height="1" fill="#ebaa78"></rect><rect x="32" y="19" width="1" height="1" fill="#7846d7"></rect><rect x="33" y="19" width="2" height="1" fill="#0a091c"></rect><rect x="35" y="19" width="1" height="1" fill="#f58c1e"></rect><rect x="36" y="19" width="1" height="2" fill="#ebaa78"></rect><rect x="37" y="19" width="1" height="17" fill="#fad8aa"></rect><rect x="39" y="19" width="2" height="2" fill="#fad8aa"></rect><rect x="41" y="19" width="1" height="1" fill="#ebaa78"></rect><rect x="42" y="19" width="1" height="1" fill="#f58c1e"></rect><rect x="43" y="19" width="1" height="1" fill="#0a091c"></rect><rect x="46" y="19" width="1" height="3" fill="#2d1482"></rect><rect x="52" y="19" width="1" height="12" fill="#14aa4b"></rect><rect x="54" y="19" width="1" height="5" fill="#f58c1e"></rect><rect x="55" y="19" width="1" height="8" fill="#0a091c"></rect><rect x="61" y="19" width="1" height="7" fill="#14aa4b"></rect><rect x="66" y="19" width="1" height="5" fill="#000000"></rect><rect x="13" y="20" width="1" height="6" fill="#fad728"></rect><rect x="20" y="20" width="3" height="1" fill="#7846d7"></rect><rect x="23" y="20" width="1" height="1" fill="#0a091c"></rect><rect x="24" y="20" width="1" height="1" fill="#e63746"></rect><rect x="25" y="20" width="1" height="1" fill="#ebaa78"></rect><rect x="26" y="20" width="2" height="1" fill="#fad8aa"></rect><rect x="30" y="20" width="4" height="1" fill="#0a091c"></rect><rect x="34" y="20" width="2" height="1" fill="#ebaa78"></rect><rect x="41" y="20" width="1" height="1" fill="#fad8aa"></rect><rect x="42" y="20" width="2" height="1" fill="#ebaa78"></rect><rect x="44" y="20" width="1" height="1" fill="#0a091c"></rect><rect x="47" y="20" width="1" height="15" fill="#2d1482"></rect><rect x="6" y="21" width="1" height="5" fill="#14aa4b"></rect><rect x="17" y="21" width="2" height="11" fill="#0c8ccd"></rect><rect x="19" y="21" width="3" height="1" fill="#7846d7"></rect><rect x="22" y="21" width="1" height="1" fill="#0a091c"></rect><rect x="23" y="21" width="2" height="2" fill="#ebaa78"></rect><rect x="25" y="21" width="1" height="7" fill="#fad8aa"></rect><rect x="26" y="21" width="3" height="7" fill="#0a091c"></rect><rect x="30" y="21" width="3" height="1" fill="#0a091c"></rect><rect x="33" y="21" width="1" height="1" fill="#f58c1e"></rect><rect x="34" y="21" width="1" height="1" fill="#ebaa78"></rect><rect x="35" y="21" width="2" height="15" fill="#fad8aa"></rect><rect x="38" y="21" width="3" height="7" fill="#0a091c"></rect><rect x="41" y="21" width="1" height="1" fill="#000000"></rect><rect x="42" y="21" width="1" height="7" fill="#fad8aa"></rect><rect x="43" y="21" width="2" height="1" fill="#ebaa78"></rect><rect x="45" y="21" width="1" height="1" fill="#0a091c"></rect><rect x="19" y="22" width="2" height="10" fill="#7846d7"></rect><rect x="21" y="22" width="1" height="14" fill="#0a091c"></rect><rect x="22" y="22" width="1" height="9" fill="#fad8aa"></rect><rect x="30" y="22" width="1" height="14" fill="#fad8aa"></rect><rect x="31" y="22" width="3" height="1" fill="#ebaa78"></rect><rect x="34" y="22" width="1" height="14" fill="#fad8aa"></rect><rect x="41" y="22" width="1" height="6" fill="#0a091c"></rect><rect x="43" y="22" width="1" height="6" fill="#fad8aa"></rect><rect x="44" y="22" width="1" height="9" fill="#ebaa78"></rect><rect x="45" y="22" width="1" height="1" fill="#f58c1e"></rect><rect x="46" y="22" width="1" height="2" fill="#0a091c"></rect><rect x="48" y="22" width="2" height="9" fill="#2d1482"></rect><rect x="53" y="22" width="1" height="1" fill="#ebaa78"></rect><rect x="23" y="23" width="2" height="5" fill="#fad8aa"></rect><rect x="31" y="23" width="3" height="13" fill="#fad8aa"></rect><rect x="45" y="23" width="1" height="5" fill="#ebaa78"></rect><rect x="53" y="23" width="1" height="6" fill="#f58c1e"></rect><rect x="46" y="24" width="1" height="2" fill="#000000"></rect><rect x="54" y="24" width="1" height="2" fill="#ebaa78"></rect><rect x="65" y="24" width="1" height="2" fill="#0a091c"></rect><rect x="3" y="25" width="1" height="1" fill="#000000"></rect><rect x="3" y="26" width="1" height="3" fill="#0a091c"></rect><rect x="6" y="26" width="1" height="8" fill="#fad728"></rect><rect x="9" y="26" width="1" height="10" fill="#14aa4b"></rect><rect x="11" y="26" width="1" height="11" fill="#0c8ccd"></rect><rect x="12" y="26" width="1" height="11" fill="#2d1482"></rect><rect x="13" y="26" width="1" height="11" fill="#0a091c"></rect><rect x="46" y="26" width="1" height="10" fill="#0a091c"></rect><rect x="54" y="26" width="1" height="11" fill="#0a091c"></rect><rect x="56" y="26" width="1" height="10" fill="#0c8ccd"></rect><rect x="58" y="26" width="1" height="11" fill="#14aa4b"></rect><rect x="61" y="26" width="1" height="9" fill="#fad728"></rect><rect x="65" y="26" width="1" height="1" fill="#000000"></rect><rect x="55" y="27" width="1" height="9" fill="#2d1482"></rect><rect x="63" y="27" width="1" height="2" fill="#f58c1e"></rect><rect x="64" y="27" width="1" height="1" fill="#e63746"></rect><rect x="65" y="27" width="1" height="1" fill="#0a091c"></rect><rect x="23" y="28" width="1" height="5" fill="#fad8aa"></rect><rect x="24" y="28" width="2" height="3" fill="#ebaa78"></rect><rect x="26" y="28" width="4" height="1" fill="#fad8aa"></rect><rect x="38" y="28" width="4" height="1" fill="#fad8aa"></rect><rect x="42" y="28" width="2" height="1" fill="#ebaa78"></rect><rect x="45" y="28" width="1" height="2" fill="#f58c1e"></rect><rect x="64" y="28" width="1" height="5" fill="#0a091c"></rect><rect x="65" y="28" width="1" height="1" fill="#000000"></rect><rect x="4" y="29" width="1" height="1" fill="#0a091c"></rect><rect x="14" y="29" width="1" height="4" fill="#0a091c"></rect><rect x="26" y="29" width="2" height="2" fill="#ebaa78"></rect><rect x="28" y="29" width="2" height="6" fill="#fad8aa"></rect><rect x="38" y="29" width="2" height="6" fill="#fad8aa"></rect><rect x="40" y="29" width="2" height="1" fill="#ebaa78"></rect><rect x="42" y="29" width="2" height="1" fill="#f58c1e"></rect><rect x="53" y="29" width="1" height="3" fill="#0a091c"></rect><rect x="62" y="29" width="1" height="1" fill="#f58c1e"></rect><rect x="63" y="29" width="1" height="1" fill="#e63746"></rect><rect x="4" y="30" width="1" height="1" fill="#000000"></rect><rect x="40" y="30" width="1" height="1" fill="#ebaa78"></rect><rect x="41" y="30" width="1" height="1" fill="#f58c1e"></rect><rect x="42" y="30" width="1" height="1" fill="#ebaa78"></rect><rect x="43" y="30" width="1" height="1" fill="#f58c1e"></rect><rect x="45" y="30" width="1" height="1" fill="#ebaa78"></rect><rect x="50" y="30" width="1" height="3" fill="#0c8ccd"></rect><rect x="51" y="30" width="1" height="1" fill="#14aa4b"></rect><rect x="62" y="30" width="1" height="2" fill="#fad728"></rect><rect x="63" y="30" width="1" height="2" fill="#0a091c"></rect><rect x="4" y="31" width="2" height="1" fill="#0a091c"></rect><rect x="15" y="31" width="1" height="2" fill="#0a091c"></rect><rect x="22" y="31" width="1" height="1" fill="#000000"></rect><rect x="24" y="31" width="4" height="2" fill="#fad8aa"></rect><rect x="40" y="31" width="5" height="1" fill="#fad8aa"></rect><rect x="45" y="31" width="1" height="1" fill="#000000"></rect><rect x="48" y="31" width="1" height="2" fill="#2d1482"></rect><rect x="49" y="31" width="1" height="3" fill="#0c8ccd"></rect><rect x="51" y="31" width="1" height="1" fill="#0c8ccd"></rect><rect x="52" y="31" width="1" height="2" fill="#0a091c"></rect><rect x="3" y="32" width="1" height="3" fill="#0a091c"></rect><rect x="4" y="32" width="1" height="1" fill="#2d1482"></rect><rect x="5" y="32" width="1" height="1" fill="#0a091c"></rect><rect x="16" y="32" width="1" height="3" fill="#0a091c"></rect><rect x="17" y="32" width="1" height="2" fill="#145596"></rect><rect x="18" y="32" width="2" height="2" fill="#0c8ccd"></rect><rect x="20" y="32" width="1" height="2" fill="#2d1482"></rect><rect x="22" y="32" width="1" height="5" fill="#0a091c"></rect><rect x="40" y="32" width="4" height="1" fill="#fad8aa"></rect><rect x="44" y="32" width="2" height="5" fill="#0a091c"></rect><rect x="51" y="32" width="1" height="1" fill="#2d1482"></rect><rect x="62" y="32" width="1" height="3" fill="#0a091c"></rect><rect x="63" y="32" width="1" height="5" fill="#14aa4b"></rect><rect x="4" y="33" width="1" height="1" fill="#0a091c"></rect><rect x="5" y="33" width="1" height="1" fill="#000000"></rect><rect x="23" y="33" width="2" height="4" fill="#0a091c"></rect><rect x="25" y="33" width="3" height="1" fill="#fad8aa"></rect><rect x="40" y="33" width="3" height="1" fill="#fad8aa"></rect><rect x="43" y="33" width="1" height="1" fill="#000000"></rect><rect x="48" y="33" width="1" height="3" fill="#0c8ccd"></rect><rect x="50" y="33" width="1" height="1" fill="#145596"></rect><rect x="51" y="33" width="1" height="1" fill="#0a091c"></rect><rect x="64" y="33" width="1" height="4" fill="#14aa4b"></rect><rect x="65" y="33" width="1" height="4" fill="#0a091c"></rect><rect x="2" y="34" width="1" height="1" fill="#000000"></rect><rect x="4" y="34" width="1" height="3" fill="#14aa4b"></rect><rect x="5" y="34" width="2" height="1" fill="#0a091c"></rect><rect x="17" y="34" width="1" height="2" fill="#0a091c"></rect><rect x="18" y="34" width="1" height="1" fill="#145596"></rect><rect x="19" y="34" width="2" height="2" fill="#0c8ccd"></rect><rect x="25" y="34" width="1" height="3" fill="#0a091c"></rect><rect x="26" y="34" width="1" height="1" fill="#000000"></rect><rect x="27" y="34" width="1" height="1" fill="#fad8aa"></rect><rect x="40" y="34" width="1" height="1" fill="#fad8aa"></rect><rect x="41" y="34" width="1" height="3" fill="#0a091c"></rect><rect x="42" y="34" width="1" height="1" fill="#000000"></rect><rect x="43" y="34" width="1" height="3" fill="#0a091c"></rect><rect x="49" y="34" width="1" height="1" fill="#145596"></rect><rect x="50" y="34" width="1" height="2" fill="#0a091c"></rect><rect x="2" y="35" width="1" height="2" fill="#0a091c"></rect><rect x="3" y="35" width="1" height="2" fill="#14aa4b"></rect><rect x="5" y="35" width="1" height="2" fill="#14aa4b"></rect><rect x="6" y="35" width="1" height="1" fill="#0a091c"></rect><rect x="18" y="35" width="1" height="2" fill="#0a091c"></rect><rect x="26" y="35" width="1" height="2" fill="#0a091c"></rect><rect x="27" y="35" width="3" height="1" fill="#000000"></rect><rect x="38" y="35" width="3" height="1" fill="#000000"></rect><rect x="42" y="35" width="1" height="2" fill="#0a091c"></rect><rect x="47" y="35" width="1" height="2" fill="#0c8ccd"></rect><rect x="49" y="35" width="1" height="2" fill="#0a091c"></rect><rect x="61" y="35" width="1" height="1" fill="#000000"></rect><rect x="62" y="35" width="1" height="2" fill="#14aa4b"></rect><rect x="6" y="36" width="1" height="1" fill="#14aa4b"></rect><rect x="7" y="36" width="1" height="1" fill="#0a091c"></rect><rect x="9" y="36" width="1" height="1" fill="#0c8ccd"></rect><rect x="19" y="36" width="1" height="1" fill="#0a091c"></rect><rect x="20" y="36" width="2" height="1" fill="#0c8ccd"></rect><rect x="27" y="36" width="2" height="1" fill="#0a091c"></rect><rect x="29" y="36" width="1" height="1" fill="#000000"></rect><rect x="30" y="36" width="8" height="1" fill="#ebaa78"></rect><rect x="38" y="36" width="3" height="1" fill="#0a091c"></rect><rect x="46" y="36" width="1" height="1" fill="#2d1482"></rect><rect x="48" y="36" width="1" height="1" fill="#0a091c"></rect><rect x="55" y="36" width="2" height="1" fill="#0a091c"></rect><rect x="60" y="36" width="1" height="1" fill="#0a091c"></rect><rect x="61" y="36" width="1" height="1" fill="#14aa4b"></rect></svg>